PathFileType	4	(X/Y/Z)	Patient4_TMGait_0pt6_01_left_32.trc.trc
DataRate	CameraRate	NumFrames	NumMarkers	Units	OrigDataRate	OrigDataStartFrame	OrigNumFrames
78.212290502793	78.212290502793	4	33	mm	78.212290502793	89	       141
Frame#	Time	Sacral			L.Shoulder			Chest			R.Shoulder			Neck			R.ASIS			L.ASIS			R.Thigh.Superior			R.Thigh.Lateral			R.Thigh.Inferior			R.Patella			L.Thigh.Superior			L.Thigh.Lateral			L.Thigh.Inferior			L.Patella			L.Shank.Superior			L.Shank.Lateral			L.Shank.Inferior			R.Shank.Superior			R.Shank.Lateral			R.Shank.Inferior			R.Heel			R.Midfoot.Superior			R.Midfoot.Lateral			R.Toe			L.Heel			L.Midfoot.Lateral			L.Midfoot.Superior			L.Toe			L.Elbow			L.Wrist			R.Elbow			R.Wrist			
		X1	Y1	Z1	X2	Y2	Z2	X3	Y3	Z3	X4	Y4	Z4	X5	Y5	Z5	X6	Y6	Z6	X7	Y7	Z7	X8	Y8	Z8	X9	Y9	Z9	X10	Y10	Z10	X11	Y11	Z11	X12	Y12	Z12	X13	Y13	Z13	X14	Y14	Z14	X15	Y15	Z15	X16	Y16	Z16	X17	Y17	Z17	X18	Y18	Z18	X19	Y19	Z19	X20	Y20	Z20	X21	Y21	Z21	X22	Y22	Z22	X23	Y23	Z23	X24	Y24	Z24	X25	Y25	Z25	X26	Y26	Z26	X27	Y27	Z27	X28	Y28	Z28	X29	Y29	Z29	X30	Y30	Z30	X31	Y31	Z31	X32	Y32	Z32	X33	Y33	Z33	

89	40.005142857143	761.093253975918	996.043076424318	502.404999521479	914.107975426062	1431.302292631424	324.281178434459	1020.240605579727	1366.208122253498	484.739880247536	933.058174716677	1433.020854605571	658.740290908676	899.444082774453	1491.358584047935	478.147550914440	990.345724421032	942.568618186981	617.995630153310	973.072170362215	958.030405569900	344.154017864900	1050.033993649437	748.650589970516	584.366648049135	980.179167938627	633.140557255108	643.748697335539	1059.892013336015	589.156561361465	560.701915616362	1068.063840510733	501.378287428811	565.500620286257	1017.340491413513	737.536480602737	366.026791349006	931.471633342892	622.494771521437	300.945875694241	1020.971561447619	538.182249691622	355.239903047176	1011.364351545278	450.476429100123	351.768022090705	936.550175809485	395.231475430645	350.561527790922	790.192578548799	366.908568022569	309.058522218090	764.703853297628	242.510529866019	369.081672331993	1048.994711836323	410.951049070770	572.450610204119	988.289292278771	299.568263107614	631.407188887362	1040.099066210367	210.778445484479	567.126660085615	919.082230552107	42.102629464364	531.150674013024	1088.909151415730	98.108532531618	569.775894805725	1001.317204682283	36.869142151271	607.557231180592	1209.149901364920	47.137651000035	599.065155784955	568.371671565685	202.933760537575	412.951880068212	618.619936265735	144.514138708359	336.555632943415	723.968489398984	141.431698493904	356.145975528023	787.711168659725	30.621616784316	338.356780369449	919.214472633767	1073.204086311402	214.127267621643	1098.282308325874	881.834684484871	223.722675344738	890.737689239230	1083.824083061514	770.255947218687	982.785948317096	838.997520998339	767.015645319908	
90	40.017928571429	760.795328187555	996.980318017233	505.966067978563	912.494807635972	1431.875333698910	326.135701117019	1020.198289218230	1367.012984151044	485.652386261853	934.799754425688	1433.857226644891	660.509919473118	898.997922068731	1492.112666332712	480.042206953299	990.842254172929	943.450748441163	619.683969445317	971.775993020201	958.648664913285	345.983077698067	1048.223202286920	747.983836240326	586.832038322265	976.821491324507	633.249926198407	645.791836658986	1055.886219803463	588.510683299584	562.589918616818	1062.892659600441	500.880786395276	566.835058706335	1022.132922744553	741.323884937199	367.820797413915	940.972994491712	624.260618666708	301.594835763945	1033.419584059250	542.361564186743	355.707238465360	1025.821033408712	453.674552447802	351.676251128679	950.044620485207	398.057221561474	350.476832494435	802.723239435325	373.277939297015	309.223390638371	774.567940999927	249.150187450639	368.895717325626	1043.419982295677	410.566837240769	573.624104484230	982.212098663676	299.394182040351	632.333369363005	1033.293320150158	210.523163831242	567.629331368135	911.447384472113	42.052089737602	531.323039210964	1081.241517355807	98.035101324362	569.940839416276	993.667678742088	36.801658826440	607.751153224371	1201.486203727196	47.180333865346	599.239361408652	577.315732353038	216.235843600959	412.777081571943	625.547475758195	155.664292768565	336.334569921971	731.149870215115	148.242412717035	355.972492395036	790.196803016437	31.348656799441	337.981807800361	913.853777148562	1072.747154737096	218.588268589092	1081.012322039050	870.663885256643	225.188518184643	901.351532475017	1083.859373780573	773.966165159214	1005.486682772462	843.911026915768	767.799687294233	
91	40.030714285714	760.250469581395	997.978449513407	509.388468398733	910.705863584962	1432.360983773723	327.847354944989	1020.050059362652	1367.742951748609	486.348824315475	936.573996880026	1434.715766869722	662.091082097363	898.502699550469	1492.830153303270	481.741662926918	991.031370191190	944.190137634673	621.315201264959	970.266314533098	959.229707561869	347.762474899152	1046.088677710239	747.259370906500	589.329509905067	973.113111617782	633.288627445094	647.763454263002	1051.586419625895	587.837949661066	564.490468180140	1057.448784411772	500.377397151194	568.205900195000	1026.459796608539	745.454611804191	369.620594894753	949.900700376051	626.643619409501	302.199246629852	1045.034741582834	547.227733938076	356.226001132716	1039.635868553773	457.714042509446	351.687313652401	963.346203938252	401.469765674061	350.430391419843	815.392256794429	379.072597133684	309.315695662774	785.503537712969	255.065971645512	368.715476385344	1037.601056475125	410.166378617139	574.793988479071	975.881419186325	299.181173022990	633.229318826390	1026.338119494425	210.254007962506	568.141809863638	903.730011188322	42.000661054754	531.484186969705	1073.519381598743	97.951085508842	570.123962475207	985.928355927934	36.716511085145	607.921290701665	1193.745615985860	47.157839494123	599.397716729850	587.748969456896	226.483631667554	412.614515687032	634.655376755710	164.711920651769	336.001239229567	740.368846626246	154.363168172878	355.677233375935	796.196473369630	32.690433291591	337.223215865736	908.547575861416	1072.375285732778	222.613150554616	1062.995517044876	860.376100888007	226.485997738037	912.056494257119	1084.237857669863	777.532015746634	1028.301328294829	849.963609137015	768.144034823256	
92	40.043500000000	759.499410186097	999.044929166066	512.649320485616	908.805288808702	1432.801160494240	329.444801382398	1019.823375161456	1368.413839972595	486.871338825043	938.383295261087	1435.628747474709	663.498926343090	897.983911991655	1493.534332358875	483.276822436160	990.942704861694	944.815347623287	622.911176527986	968.584728623777	959.822960202464	349.511410495042	1043.678646872846	746.528206030957	591.736052550716	969.151190535222	633.303623567779	649.634471034831	1047.034672302651	587.161747172951	566.333800407319	1051.778965753018	499.889209205905	569.578622519077	1030.280193249945	749.904742643262	371.449329815568	958.182412374120	629.605806091331	302.777988119001	1055.744732507295	552.705814075565	356.770944370085	1052.706799851026	462.529487603656	351.739294334690	976.368755613899	405.385414142075	350.378141417500	828.084234553779	384.061929371820	309.339875782382	797.559781563244	259.960451602178	368.496251908986	1031.579886794594	409.773618579507	575.938973354699	969.348605618728	298.960232718194	634.100745389810	1019.269177961050	209.989520222281	568.663168624215	895.954517679710	41.958554277860	531.643795807280	1065.773838295466	97.873653133355	570.333241144691	978.129354983394	36.625897597442	608.069214202559	1185.958203546693	47.081560844278	599.536301730538	599.687636742763	233.136180772770	412.484373818813	646.003843100352	171.164575860490	335.534658202884	751.765033317557	159.412219287690	355.182509977408	806.034924875092	34.521590918837	335.940554017484	903.220611890022	1072.141529327254	226.196817709155	1044.370123540801	851.159580397022	227.618719257393	922.785501321192	1084.985670757760	780.896484500310	1051.086849217091	857.241781775104	768.020290083628	
